<svg width="377" height="446" viewBox="0 0 377 446" fill="none" xmlns="http://www.w3.org/2000/svg">
<path d="M86.6482 100.523L0.597657 67.5682L0.597684 244.707C0.597686 288.38 8.74011 325.021 25.025 354.63C41.3098 384.424 63.7015 406.908 92.1999 422.082C120.513 437.442 152.713 445.122 188.799 445.122C225.254 445.122 257.639 437.442 285.953 422.082C314.266 406.723 336.565 384.054 352.85 354.075C368.95 324.096 377 287.177 377 243.319L377 76.8371L312.12 59.3296L292.337 126.269L292.337 229.44C292.337 254.978 287.896 275.889 279.013 292.174C270.13 308.459 257.917 320.487 242.372 328.259C226.827 336.217 208.97 340.195 188.799 340.195C168.628 340.195 150.862 336.217 135.503 328.259C120.143 320.487 108.207 308.366 99.6946 291.896C90.9971 275.611 86.6483 254.608 86.6483 228.885L86.6483 134.507L86.6482 100.523Z" fill="#30345E"/>
<ellipse cx="188.46" cy="77.2378" rx="188.46" ry="77.2378" transform="matrix(-1 0 0 1 377 0.628906)" fill="#30345E"/>
<ellipse cx="99.8942" cy="30.8951" rx="99.8942" ry="30.8951" transform="matrix(-1 0 0 1 288.434 39.7632)" fill="#FCEC41"/>
</svg>
