<svg width="764" height="764" viewBox="0 0 764 764" fill="none" xmlns="http://www.w3.org/2000/svg">
<rect width="764" height="764" rx="243" fill="#30345E"/>
<path d="M280.569 259.894L194.518 226.939L194.518 404.078C194.518 447.751 202.661 484.392 218.946 514C235.23 543.794 257.622 566.278 286.121 581.453C314.434 596.813 346.634 604.492 382.719 604.492C419.175 604.492 451.56 596.813 479.873 581.453C508.187 566.093 530.486 543.424 546.771 513.445C562.87 483.466 570.92 446.548 570.92 402.69L570.92 236.208L506.04 218.7L486.258 285.639L486.258 388.811C486.258 414.348 481.816 435.26 472.934 451.544C464.051 467.829 451.837 479.858 436.293 487.63C420.748 495.587 402.89 499.566 382.719 499.566C362.548 499.566 344.783 495.587 329.423 487.63C314.064 479.858 302.128 467.737 293.615 451.267C284.918 434.982 280.569 413.978 280.569 388.256L280.569 293.878L280.569 259.894Z" fill="white"/>
<ellipse cx="188.46" cy="77.2378" rx="188.46" ry="77.2378" transform="matrix(-1 0 0 1 570.92 160)" fill="white"/>
<ellipse cx="99.8942" cy="30.8951" rx="99.8942" ry="30.8951" transform="matrix(-1 0 0 1 482.354 199.135)" fill="#FCEC41"/>
</svg>
