<svg width="231" height="230" viewBox="0 0 231 230" fill="none" xmlns="http://www.w3.org/2000/svg">
<rect x="0.612793" width="230" height="230" rx="73.1544" fill="#FCEC41"/>
<path d="M85.0772 78.24L59.1719 68.3191L59.1719 121.646C59.1719 134.794 61.6231 145.824 66.5256 154.738C71.4281 163.707 78.1691 170.476 86.7485 175.045C95.2721 179.668 104.966 181.98 115.829 181.98C126.804 181.98 136.553 179.668 145.077 175.045C153.601 170.421 160.314 163.596 165.216 154.571C170.063 145.546 172.487 134.432 172.487 121.228L172.487 71.1094L152.955 65.8389L146.999 85.9907L146.999 117.05C146.999 124.738 145.662 131.033 142.988 135.936C140.314 140.838 136.637 144.46 131.957 146.799C127.278 149.195 121.902 150.393 115.829 150.393C109.757 150.393 104.409 149.195 99.7847 146.799C95.1607 144.46 91.5674 140.811 89.0047 135.852C86.3864 130.95 85.0772 124.627 85.0772 116.883L85.0772 88.4708L85.0772 78.24Z" fill="#30345E"/>
<ellipse cx="56.7354" cy="23.2522" rx="56.7354" ry="23.2522" transform="matrix(-1 0 0 1 172.487 48.168)" fill="#30345E"/>
<ellipse cx="30.0728" cy="9.30088" rx="30.0728" ry="9.30088" transform="matrix(-1 0 0 1 145.824 59.9492)" fill="white"/>
</svg>
